<svg xmlns="http://www.w3.org/2000/svg" viewBox="0 0 1082 868" width="1082" height="868" role="img" aria-labelledby="05-waterfall-title 05-waterfall-desc" data-renderer="local-d2-subset-graphviz" preserveAspectRatio="xMidYMid meet"><title id="05-waterfall-title">Waterfall · twelve acceptance gates</title><desc id="05-waterfall-desc">Read left to right, then continue on the next row. This is acceptance order, not the full work-package dependency graph. Measurement continues from W1 through W10; crash/reorg recovery remains a release gate through W11.</desc><style>.s1{fill:none;stroke:#68858D;stroke-width:1.5}.s2{fill:#FFFFFF;stroke:#91ABB3;stroke-width:1.3}.s3{fill:#193F49;font-family:Arial, Helvetica, sans-serif;font-size:18.0;font-weight:500;text-anchor:middle}.s4{fill:#164D59;stroke:#164D59;stroke-width:1.3}.s5{fill:#FFFFFF;font-family:Arial, Helvetica, sans-serif;font-size:18.0;font-weight:500;text-anchor:middle}</style><defs><marker id="05-waterfall-arrow" viewBox="0 0 10 10" refX="9" refY="5" markerWidth="7" markerHeight="7" orient="auto-start-reverse"><path d="M 0 0 L 10 5 L 0 10 z" fill="#68858D"/></marker></defs><path marker-end="url(#05-waterfall-arrow)" d="M 338 84.0 H 386" class="s1"/><path marker-end="url(#05-waterfall-arrow)" d="M 696 84.0 H 744" class="s1"/><path marker-end="url(#05-waterfall-arrow)" d="M 899.0 140 V 171.5 H 183.0 V 203" class="s1"/><path marker-end="url(#05-waterfall-arrow)" d="M 338 259.0 H 386" class="s1"/><path marker-end="url(#05-waterfall-arrow)" d="M 696 259.0 H 744" class="s1"/><path marker-end="url(#05-waterfall-arrow)" d="M 899.0 315 V 346.5 H 183.0 V 378" class="s1"/><path marker-end="url(#05-waterfall-arrow)" d="M 338 434.0 H 386" class="s1"/><path marker-end="url(#05-waterfall-arrow)" d="M 696 434.0 H 744" class="s1"/><path marker-end="url(#05-waterfall-arrow)" d="M 899.0 490 V 521.5 H 183.0 V 553" class="s1"/><path marker-end="url(#05-waterfall-arrow)" d="M 338 609.0 H 386" class="s1"/><path marker-end="url(#05-waterfall-arrow)" d="M 696 609.0 H 744" class="s1"/><path marker-end="url(#05-waterfall-arrow)" d="M 899.0 665 V 696.5 H 541.0 V 728" class="s1"/><rect x="28" y="28" width="310" height="112" rx="7" class="s2"/><text x="183.0" y="78.06" class="s3"><tspan x="183.0" dy="0">W0 / G0</tspan><tspan x="183.0" dy="23.76">Reference + scope freeze</tspan></text><rect x="386" y="28" width="310" height="112" rx="7" class="s2"/><text x="541.0" y="66.17999999999999" class="s3"><tspan x="541.0" dy="0">W1 / G1</tspan><tspan x="541.0" dy="23.76">Differential harness</tspan><tspan x="541.0" dy="23.76">Baseline evidence</tspan></text><rect x="744" y="28" width="310" height="112" rx="7" class="s2"/><text x="899.0" y="66.17999999999999" class="s3"><tspan x="899.0" dy="0">W2 / G2</tspan><tspan x="899.0" dy="23.76">Ownership · configuration</tspan><tspan x="899.0" dy="23.76">Status contracts</tspan></text><rect x="28" y="203" width="310" height="112" rx="7" class="s2"/><text x="183.0" y="241.18" class="s3"><tspan x="183.0" dy="0">W3 / G3</tspan><tspan x="183.0" dy="23.76">One-pass parser</tspan><tspan x="183.0" dy="23.76">Prepared verification</tspan></text><rect x="386" y="203" width="310" height="112" rx="7" class="s4"/><text x="541.0" y="241.18" class="s5"><tspan x="541.0" dy="0">W4 / G4</tspan><tspan x="541.0" dy="23.76">Incremental durability</tspan><tspan x="541.0" dy="23.76">Recovery + reorg</tspan></text><rect x="744" y="203" width="310" height="112" rx="7" class="s4"/><text x="899.0" y="241.18" class="s5"><tspan x="899.0" dy="0">W5 / G5</tspan><tspan x="899.0" dy="23.76">Native consensus</tspan><tspan x="899.0" dy="23.76">Promotion evidence</tspan></text><rect x="28" y="378" width="310" height="112" rx="7" class="s2"/><text x="183.0" y="416.18" class="s3"><tspan x="183.0" dy="0">W6 / G6</tspan><tspan x="183.0" dy="23.76">Unified admission</tspan><tspan x="183.0" dy="23.76">Graph + real fee history</tspan></text><rect x="386" y="378" width="310" height="112" rx="7" class="s2"/><text x="541.0" y="416.18" class="s3"><tspan x="541.0" dy="0">W7 / G7</tspan><tspan x="541.0" dy="23.76">Real P2P relay</tspan><tspan x="541.0" dy="23.76">Interoperability</tspan></text><rect x="744" y="378" width="310" height="112" rx="7" class="s2"/><text x="899.0" y="416.18" class="s3"><tspan x="899.0" dy="0">W8 / G8</tspan><tspan x="899.0" dy="23.76">Generic indexes + APIs</tspan><tspan x="899.0" dy="23.76">External consumers</tspan></text><rect x="28" y="553" width="310" height="112" rx="7" class="s2"/><text x="183.0" y="591.1800000000001" class="s3"><tspan x="183.0" dy="0">W9 / G9</tspan><tspan x="183.0" dy="23.76">External miner</tspan><tspan x="183.0" dy="23.76">End-to-end proof</tspan></text><rect x="386" y="553" width="310" height="112" rx="7" class="s2"/><text x="541.0" y="591.1800000000001" class="s3"><tspan x="541.0" dy="0">W10 / G10</tspan><tspan x="541.0" dy="23.76">Measured SIMD</tspan><tspan x="541.0" dy="23.76">Memory + I/O optimization</tspan></text><rect x="744" y="553" width="310" height="112" rx="7" class="s4"/><text x="899.0" y="591.1800000000001" class="s5"><tspan x="899.0" dy="0">W11 / G11</tspan><tspan x="899.0" dy="23.76">Full-tip storage</tspan><tspan x="899.0" dy="23.76">Release profiles + deletion</tspan></text><rect x="386.0" y="728" width="310" height="112" rx="7" fill="#E7F2EF" stroke="#799E92" stroke-width="1.3"/><text x="541.0" y="778.0600000000001" fill="#235647" font-family="Arial, Helvetica, sans-serif" font-size="18.0" font-weight="500" text-anchor="middle"><tspan x="541.0" dy="0">Release</tspan><tspan x="541.0" dy="23.76">Complete signed-off evidence</tspan></text></svg>