<svg xmlns="http://www.w3.org/2000/svg" viewBox="0 0 1082 693" width="1082" height="693" role="img" aria-labelledby="07-validation-window-title 07-validation-window-desc" data-renderer="local-d2-subset-graphviz" preserveAspectRatio="xMidYMid meet"><title id="07-validation-window-title">Ordered preparation · parallel proof</title><desc id="07-validation-window-desc">Ingress, parsing/context and preparation nodes consolidate adjacent steps from the source diagram. Workers share immutable prepared jobs, then join at a contiguous valid-prefix frontier. Failure discards its block and dependent suffix; speculative coins never become public.</desc><style>.s0{fill:none;marker-end:url(#07-validation-window-arrow);stroke:#68858D;stroke-width:1.5}.s1{fill:#EDF3F5;stroke:#91ABB3;stroke-width:1.3}.s2{fill:#244C57;font-family:Arial, Helvetica, sans-serif;font-size:17.0px;font-weight:500;text-anchor:middle}.s3{fill:#FFFFFF;stroke:#91ABB3;stroke-width:1.3}.s4{fill:#193F49;font-family:Arial, Helvetica, sans-serif;font-size:18.0px;font-weight:500;text-anchor:middle}.s5{fill:#E7F2EF;stroke:#799E92;stroke-width:1.3}.s6{fill:#235647;font-family:Arial, Helvetica, sans-serif;font-size:18.0px;font-weight:500;text-anchor:middle}.s7{fill:#F8EEE7;stroke:#BB7854;stroke-width:1.3}.s8{fill:#813E1D;font-family:Arial, Helvetica, sans-serif;font-size:18.0px;font-weight:500;text-anchor:middle}.s9{fill:#164D59;stroke:#164D59;stroke-width:1.3}.s10{fill:#FFFFFF;font-family:Arial, Helvetica, sans-serif;font-size:18.0px;font-weight:500;text-anchor:middle}</style><rect x="0" y="0" width="1082" height="693" fill="#ffffff"/><defs><marker id="07-validation-window-arrow" viewBox="0 0 10 10" refX="9" refY="5" markerWidth="7" markerHeight="7" orient="auto-start-reverse"><path d="M 0 0 L 10 5 L 0 10 z" fill="#68858D"/></marker></defs><path d="M 338 84 H 386" class="s0"/><path d="M 696 84 H 744" class="s0"/><path d="M 899 140 V 171.5 H 183 V 203" class="s0"/><path d="M 899 140 V 171.5 H 541 V 203" class="s0"/><path d="M 899 140 V 171.5 H 899 V 203" class="s0"/><path d="M 183 315 V 346.5 H 183 V 378" class="s0"/><path d="M 541 315 V 346.5 H 183 V 378" class="s0"/><path d="M 899 315 V 346.5 H 183 V 378" class="s0"/><path d="M 338 434 H 386" class="s0"/><path d="M 696 434 H 744" class="s0"/><path d="M 899 490 V 521.5 H 541 V 553" class="s0"/><rect x="28" y="28" width="310" height="112" rx="7" class="s1"/><text x="183" y="78.39" class="s2"><tspan x="183" dy="0">Byte-budgeted ingress</tspan><tspan x="183" dy="22.44">P2P · import · submission</tspan></text><rect x="386" y="28" width="310" height="112" rx="7" class="s3"/><text x="541" y="78.06" class="s4"><tspan x="541" dy="0">One structural parse</tspan><tspan x="541" dy="23.76">Immutable layout + block context</tspan></text><rect x="744" y="28" width="310" height="112" rx="7" class="s3"/><text x="899" y="78.06" class="s4"><tspan x="899" dy="0">Ordered coin resolution</tspan><tspan x="899" dy="23.76">Window overlay + reversible deltas</tspan></text><rect x="28" y="203" width="310" height="112" rx="7" class="s5"/><text x="183" y="253.06" class="s6"><tspan x="183" dy="0">Verification worker A</tspan><tspan x="183" dy="23.76">Immutable prepared script jobs</tspan></text><rect x="386" y="203" width="310" height="112" rx="7" class="s5"/><text x="541" y="253.06" class="s6"><tspan x="541" dy="0">Verification worker B</tspan><tspan x="541" dy="23.76">Immutable prepared script jobs</tspan></text><rect x="744" y="203" width="310" height="112" rx="7" class="s5"/><text x="899" y="253.06" class="s6"><tspan x="899" dy="0">Verification worker C</tspan><tspan x="899" dy="23.76">Immutable prepared script jobs</tspan></text><rect x="28" y="378" width="310" height="112" rx="7" class="s3"/><text x="183" y="428.06" class="s4"><tspan x="183" dy="0">Join complete results</tspan><tspan x="183" dy="23.76">Contiguous valid-prefix frontier</tspan></text><rect x="386" y="378" width="310" height="112" rx="7" class="s3"/><text x="541" y="428.06" class="s4"><tspan x="541" dy="0">Recheck parent</tspan><tspan x="541" dy="23.76">+ transition generation</tspan></text><rect x="744" y="378" width="310" height="112" rx="7" class="s7"/><text x="899" y="439.94" class="s8"><tspan x="899" dy="0">Ordered durable commit</tspan></text><rect x="386" y="553" width="310" height="112" rx="7" class="s9"/><text x="541" y="603.0600000000001" class="s10"><tspan x="541" dy="0">Coherent public view</tspan><tspan x="541" dy="23.76">No speculative state published</tspan></text></svg>